# File created by Blade
# Date/Time:  Fri Jan 16 14:33:41 2015
# Frame Rate: 120.000 fps
#------------------------------------------------------
:FULLY-SPECIFIED
:DEGREES
1253
root 18.933952 35.716543 -24.073687 -172.836767 -11.726537 -180.122003
Spine -17.740467 9.630259 -5.204085
Head 11.249932 -28.166827 -1.856032
LeftShoulder -1.509971 -17.802926 -8.369185
LeftArm -12.101601 21.769094 -73.669921
LeftForeArm 0.745118 0.000000 6.480792
LeftHand -0.940686 0.000000 -1.272211
LeftHandThumb1 -26.253704 0.000000 33.147579
RightShoulder 8.222424 3.066385 -0.630475
RightArm 68.291737 30.675285 76.103905
RightForeArm -16.760798 -0.000000 50.938639
RightHand 1.800856 -0.000000 -6.672766
RightHandThumb1 -24.326973 -0.000000 -32.862282
LeftUpLeg -0.650158 4.350518 0.119213
LeftLeg -5.168811 -0.000000 0.000000
LeftFoot -17.981564 22.506300 -13.709651
LeftToeBase 25.580072 -0.000000 -0.000000
RightUpLeg 0.985036 -18.274221 2.527426
RightLeg -4.180610 -0.000000 0.000000
RightFoot -21.607684 -27.219371 16.969324
RightToeBase 22.135352 -0.000000 -0.000000
1254
root 18.936806 35.716289 -24.077231 -172.810789 -11.776789 -180.124863
Spine -17.837022 9.685831 -5.224281
Head 11.311730 -28.173459 -1.918604
LeftShoulder -1.519294 -17.842026 -8.364952
LeftArm -12.222893 21.705774 -73.632555
LeftForeArm 0.861213 -0.000000 6.440704
LeftHand -0.832772 -0.000000 -1.369500
LeftHandThumb1 -26.253704 0.000000 33.147579
RightShoulder 8.315951 3.177270 -0.777257
RightArm 68.702705 31.103325 76.437724
RightForeArm -16.932549 -0.000000 51.971457
RightHand 1.776943 -0.000000 -6.709670
RightHandThumb1 -24.326973 -0.000000 -32.862282
LeftUpLeg -0.683865 4.309610 0.128949
LeftLeg -5.153521 -0.000000 0.000000
LeftFoot -17.987024 22.485059 -13.709968
LeftToeBase 25.596347 -0.000000 -0.000000
RightUpLeg 0.965958 -18.301058 2.543989
RightLeg -4.178814 -0.000000 0.000000
RightFoot -21.626928 -27.251128 16.981186
RightToeBase 22.165257 -0.000000 -0.000000
1255
root 18.939144 35.716283 -24.082960 -172.799253 -11.802219 -180.133320
Spine -17.919265 9.769621 -5.255043
Head 11.379327 -28.241333 -2.008605
LeftShoulder -1.548075 -17.877290 -8.357757
LeftArm -12.319049 21.795072 -73.611170
LeftForeArm 0.665879 -0.000000 6.403681
LeftHand -0.891998 -0.000000 -1.216807
LeftHandThumb1 -26.253704 0.000000 33.147579
RightShoulder 8.376351 3.290018 -0.929293
RightArm 69.057495 31.491431 76.639063
RightForeArm -16.952496 -0.000000 52.928467
RightHand 1.709208 -0.000000 -6.808228
RightHandThumb1 -24.326973 -0.000000 -32.862282
LeftUpLeg -0.692267 4.294859 0.130431
LeftLeg -5.146820 -0.000000 0.000000
LeftFoot -17.987000 22.458518 -13.728829
LeftToeBase 25.603568 -0.000000 -0.000000
RightUpLeg 0.962246 -18.303593 2.546042
RightLeg -4.171832 -0.000000 0.000000
RightFoot -21.652732 -27.285003 16.981683
RightToeBase 22.199282 -0.000000 -0.000000
1256
root 18.942095 35.716692 -24.088248 -172.779738 -11.829941 -180.141540
Spine -18.010230 9.879581 -5.302722
Head 11.435041 -28.327931 -2.063735
LeftShoulder -1.537559 -17.911504 -8.351161
LeftArm -12.418418 21.803088 -73.588591
LeftForeArm 0.665493 -0.000000 6.322724
LeftHand -0.822610 -0.000000 -1.324666
LeftHandThumb1 -26.253704 0.000000 33.147579
RightShoulder 8.401050 3.339814 -1.062704
RightArm 69.526742 31.886305 76.943625
RightForeArm -17.059928 -0.000000 53.871492
RightHand 1.770598 0.000000 -6.858328
RightHandThumb1 -24.326973 -0.000000 -32.862282
LeftUpLeg -0.708154 4.247564 0.134757
LeftLeg -5.140236 -0.000000 0.000000
LeftFoot -17.995753 22.457173 -13.755578
LeftToeBase 25.644624 -0.000000 -0.000000
RightUpLeg 0.954183 -18.330830 2.552129
RightLeg -4.174001 -0.000000 0.000000
RightFoot -21.663989 -27.284000 17.000875
RightToeBase 22.198453 -0.000000 -0.000000
1257
root 18.943456 35.717168 -24.093980 -172.752827 -11.836204 -180.151636
Spine -18.114995 10.007881 -5.351541
Head 11.498061 -28.406475 -2.133249
LeftShoulder -1.525508 -17.888168 -8.358957
LeftArm -12.477570 21.789928 -73.528211
LeftForeArm 0.677763 -0.000000 6.332037
LeftHand -0.959202 -0.000000 -1.429287
LeftHandThumb1 -26.253704 0.000000 33.147579
RightShoulder 8.427094 3.425879 -1.204248
RightArm 69.950479 32.260646 77.272736
RightForeArm -17.120767 -0.000000 54.827024
RightHand 1.818061 -0.000000 -6.923240
RightHandThumb1 -24.326973 -0.000000 -32.862282
LeftUpLeg -0.726276 4.229701 0.131009
LeftLeg -5.137436 -0.000000 0.000000
LeftFoot -17.991539 22.449713 -13.784902
LeftToeBase 25.630911 -0.000000 -0.000000
RightUpLeg 0.936985 -18.334313 2.553996
RightLeg -4.173952 -0.000000 0.000000
RightFoot -21.673125 -27.282524 17.016258
RightToeBase 22.160580 -0.000000 -0.000000
1258
root 18.948165 35.717088 -24.097434 -172.739651 -11.881429 -180.157815
Spine -18.185647 10.095209 -5.401702
Head 11.516923 -28.487788 -2.145468
LeftShoulder -1.470703 -17.916656 -8.364247
LeftArm -12.600374 21.712218 -73.479130
LeftForeArm 0.710420 -0.000000 6.306129
LeftHand -0.831726 -0.000000 -1.508001
LeftHandThumb1 -26.253704 0.000000 33.147579
RightShoulder 8.456927 3.477674 -1.333969
RightArm 70.408403 32.663311 77.595235
RightForeArm -17.222334 0.000000 55.770623
RightHand 1.848137 0.000000 -6.889665
RightHandThumb1 -24.326973 -0.000000 -32.862282
LeftUpLeg -0.748545 4.171094 0.142125
LeftLeg -5.116983 -0.000000 0.000000
LeftFoot -18.001002 22.440249 -13.799001
LeftToeBase 25.621313 -0.000000 -0.000000
RightUpLeg 0.934365 -18.374865 2.563778
RightLeg -4.177103 -0.000000 0.000000
RightFoot -21.687640 -27.287527 17.022846
RightToeBase 22.146920 -0.000000 -0.000000
1259
root 18.950818 35.717073 -24.103301 -172.719869 -11.889946 -180.164184
Spine -18.273451 10.226334 -5.457771
Head 11.532367 -28.583975 -2.178171
LeftShoulder -1.449640 -17.920761 -8.355008
LeftArm -12.688211 21.755521 -73.465325
LeftForeArm 0.668369 -0.000000 6.300800
LeftHand -0.963737 -0.000000 -1.463804
LeftHandThumb1 -26.253704 0.000000 33.147579
RightShoulder 8.484279 3.572588 -1.471395
RightArm 70.762970 33.041766 77.840536
RightForeArm -17.269129 0.000000 56.731946
RightHand 1.812459 -0.000000 -7.000283
RightHandThumb1 -24.326973 -0.000000 -32.862282
LeftUpLeg -0.757328 4.129225 0.145847
LeftLeg -5.120546 -0.000000 0.000000
LeftFoot -18.013697 22.454390 -13.835376
LeftToeBase 25.593365 -0.000000 -0.000000
RightUpLeg 0.926313 -18.386192 2.567945
RightLeg -4.179146 -0.000000 0.000000
RightFoot -21.691680 -27.274467 17.024184
RightToeBase 22.152696 -0.000000 -0.000000
1260
root 18.955190 35.717138 -24.106896 -172.702873 -11.919420 -180.171486
Spine -18.342906 10.330409 -5.519014
Head 11.522556 -28.670654 -2.168810
LeftShoulder -1.443620 -17.906316 -8.335443
LeftArm -12.713398 21.723948 -73.425618
LeftForeArm 0.684166 -0.000000 6.238296
LeftHand -0.881404 -0.000000 -1.453110
LeftHandThumb1 -26.253704 0.000000 33.147579
RightShoulder 8.493460 3.643570 -1.586159
RightArm 71.185896 33.410426 78.129003
RightForeArm -17.325193 -0.000000 57.653341
RightHand 1.837167 0.000000 -6.981364
RightHandThumb1 -24.326973 -0.000000 -32.862282
LeftUpLeg -0.778619 4.078140 0.152600
LeftLeg -5.108122 -0.000000 0.000000
LeftFoot -18.022129 22.456019 -13.867995
LeftToeBase 25.527379 -0.000000 -0.000000
RightUpLeg 0.913118 -18.422693 2.577039
RightLeg -4.171221 -0.000000 0.000000
RightFoot -21.716965 -27.271930 17.047301
RightToeBase 22.136238 -0.000000 -0.000000
1261
root 18.960634 35.716789 -24.108910 -172.696950 -11.972909 -180.176449
Spine -18.385176 10.409514 -5.571465
Head 11.489607 -28.756546 -2.149182
LeftShoulder -1.430999 -17.925401 -8.335443
LeftArm -12.753073 21.695659 -73.375325
LeftForeArm 0.722509 -0.000000 6.201172
LeftHand -0.897284 -0.000000 -1.566339
LeftHandThumb1 -26.253704 0.000000 33.147579
RightShoulder 8.530592 3.742273 -1.680231
RightArm 71.534767 33.790942 78.303336
RightForeArm -17.287195 -0.000000 58.536113
RightHand 1.906060 -0.000000 -7.112045
RightHandThumb1 -24.326973 -0.000000 -32.862282
LeftUpLeg -0.799079 3.998481 0.166578
LeftLeg -5.082561 -0.000000 0.000000
LeftFoot -18.026518 22.464096 -13.855482
LeftToeBase 25.619883 -0.000000 -0.000000
RightUpLeg 0.917073 -18.481188 2.589759
RightLeg -4.180526 -0.000000 0.000000
RightFoot -21.724162 -27.277609 17.022802
RightToeBase 22.231106 -0.000000 -0.000000
1262
root 18.963918 35.716574 -24.113185 -172.690044 -11.972678 -180.178911
Spine -18.443273 10.538015 -5.622512
Head 11.473923 -28.849360 -2.150477
LeftShoulder -1.400084 -17.970175 -8.332746
LeftArm -12.859117 21.655171 -73.351566
LeftForeArm 0.741695 -0.000000 6.186995
LeftHand -0.865275 -0.000000 -1.905273
LeftHandThumb1 -26.253704 0.000000 33.147579
RightShoulder 8.532641 3.798147 -1.793448
RightArm 71.966943 34.135527 78.590336
RightForeArm -17.293912 -0.000000 59.423211
RightHand 1.912812 -0.000000 -7.070690
RightHandThumb1 -24.326973 -0.000000 -32.862282
LeftUpLeg -0.795721 3.973791 0.172848
LeftLeg -5.089836 -0.000000 0.000000
LeftFoot -18.026467 22.483842 -13.874736
LeftToeBase 25.527850 -0.000000 -0.000000
RightUpLeg 0.915669 -18.472417 2.594193
RightLeg -4.176615 -0.000000 0.000000
RightFoot -21.752127 -27.267500 17.066502
RightToeBase 22.197183 -0.000000 -0.000000
1263
root 18.967957 35.716653 -24.116207 -172.685616 -11.993964 -180.185166
Spine -18.488257 10.613766 -5.667360
Head 11.449428 -28.911099 -2.139538
LeftShoulder -1.395121 -18.032016 -8.324193
LeftArm -12.978740 21.679945 -73.343270
LeftForeArm 0.723779 -0.000000 6.162473
LeftHand -0.825204 -0.000000 -1.949119
LeftHandThumb1 -26.253704 0.000000 33.147579
RightShoulder 8.565809 3.917252 -1.899186
RightArm 72.320367 34.442238 78.841801
RightForeArm -17.308580 -0.000000 60.241736
RightHand 2.078866 -0.000000 -7.233969
RightHandThumb1 -24.326973 -0.000000 -32.862282
LeftUpLeg -0.803909 3.946540 0.177864
LeftLeg -5.077101 -0.000000 0.000000
LeftFoot -18.039184 22.473277 -13.893042
LeftToeBase 25.557888 -0.000000 -0.000000
RightUpLeg 0.912122 -18.492177 2.597648
RightLeg -4.163539 -0.000000 0.000000
RightFoot -21.767588 -27.261278 17.070996
RightToeBase 22.143540 -0.000000 -0.000000
